<svg width="323" height="469" viewBox="0 0 323 469" fill="none" xmlns="http://www.w3.org/2000/svg">
<g clip-path="url(#clip0_699_2)">
<path d="M163.018 463.421C178.065 463.421 190.263 451.171 190.263 436.061C190.263 420.95 178.065 408.7 163.018 408.7C147.971 408.7 135.773 420.95 135.773 436.061C135.773 451.171 147.971 463.421 163.018 463.421Z" fill="#BCE6F3"/>
<path d="M100.55 373.345C100.597 389.965 107.191 405.891 118.892 417.645C130.594 429.399 146.452 436.026 163.002 436.077C179.555 436.03 195.417 429.405 207.122 417.651C218.827 405.897 225.423 389.968 225.47 373.345V338.492H100.55V373.345Z" fill="#E6E6E6"/>
<path d="M219.026 373.345V344.979H193.186L134.465 421.643C142.962 426.736 152.652 429.476 162.547 429.583C172.443 429.689 182.189 427.159 190.793 422.249C199.397 417.34 206.551 410.227 211.525 401.635C216.498 393.044 219.115 383.282 219.107 373.345H219.026Z" fill="#E6E6E6"/>
<g style="mix-blend-mode:multiply">
<path d="M227.247 270.91C225.896 270.901 224.596 270.398 223.589 269.494C222.583 268.59 221.94 267.348 221.781 266.001C221.622 264.654 221.959 263.296 222.727 262.181C223.496 261.066 224.644 260.271 225.955 259.947C241.265 256.216 257.948 242.739 270.577 223.877C282.35 206.28 288.148 187.402 285.354 175.79C285.01 174.355 285.246 172.842 286.013 171.583C286.779 170.324 288.012 169.422 289.44 169.076C290.869 168.729 292.376 168.967 293.63 169.737C294.883 170.506 295.782 171.744 296.126 173.179C299.663 187.905 293.397 209.702 279.766 230.072C265.425 251.513 246.756 266.336 228.555 270.748C228.127 270.858 227.688 270.912 227.247 270.91Z" fill="#1E3131" fill-opacity="0.2"/>
</g>
<g style="mix-blend-mode:screen">
<path d="M40.1167 145.3C38.8527 145.299 37.6269 144.864 36.6428 144.068C35.6587 143.271 34.9754 142.161 34.7064 140.921C31.4764 126.13 38.2594 104.462 52.3583 84.4161C67.184 63.3324 86.2733 48.9306 104.474 44.9409C105.193 44.7619 105.941 44.7296 106.672 44.8457C107.404 44.9619 108.105 45.2242 108.734 45.6172C109.363 46.0102 109.907 46.5258 110.334 47.1337C110.761 47.7415 111.062 48.4291 111.22 49.1559C111.377 49.8827 111.388 50.6338 111.252 51.3649C111.115 52.096 110.834 52.7922 110.425 53.4123C110.016 54.0325 109.488 54.564 108.87 54.9753C108.253 55.3866 107.56 55.6694 106.832 55.8071C91.4414 59.1643 74.5323 72.2524 61.4024 90.8224C49.2253 108.143 42.9913 126.892 45.5269 138.569C45.6812 139.281 45.6942 140.017 45.565 140.735C45.4359 141.452 45.1671 142.137 44.7741 142.75C44.3811 143.363 43.8716 143.893 43.2747 144.308C42.6778 144.723 42.0053 145.016 41.2956 145.17C40.9092 145.26 40.5134 145.304 40.1167 145.3Z" fill="#001516"/>
</g>
<g style="mix-blend-mode:screen">
<path d="M160.047 48.2007C159.238 48.1954 158.44 48.0186 157.705 47.6817C153.797 45.8491 141.119 46.8546 133.803 48.1196C133.08 48.2582 132.336 48.2507 131.616 48.0975C130.896 47.9443 130.213 47.6485 129.608 47.2273C129.003 46.8062 128.488 46.2682 128.092 45.6447C127.697 45.0212 127.429 44.3248 127.305 43.5962C127.18 42.8676 127.201 42.1214 127.367 41.4012C127.533 40.6809 127.841 40.0011 128.271 39.4015C128.702 38.8019 129.247 38.2945 129.875 37.9089C130.503 37.5234 131.202 37.2674 131.929 37.156C135.531 36.5397 153.926 33.6367 162.388 37.594C163.532 38.1284 164.46 39.039 165.019 40.1751C165.578 41.3113 165.733 42.6049 165.46 43.842C165.187 45.079 164.502 46.1854 163.517 46.978C162.533 47.7706 161.308 48.2019 160.047 48.2007Z" fill="#001516"/>
</g>
<path d="M242.67 375.21H80.3624C78.8933 375.21 77.4843 374.624 76.4455 373.58C75.4066 372.537 74.823 371.122 74.823 369.647C74.823 368.172 75.4066 366.757 76.4455 365.713C77.4843 364.67 78.8933 364.084 80.3624 364.084H242.67C244.139 364.084 245.548 364.67 246.587 365.713C247.626 366.757 248.209 368.172 248.209 369.647C248.209 371.122 247.626 372.537 246.587 373.58C245.548 374.624 244.139 375.21 242.67 375.21Z" fill="#182D46"/>
<path d="M227.957 407.257H95.0588C93.5897 407.257 92.1807 406.671 91.1419 405.628C90.1031 404.584 89.5194 403.17 89.5194 401.694C89.5194 400.219 90.1031 398.804 91.1419 397.761C92.1807 396.717 93.5897 396.131 95.0588 396.131H227.957C229.426 396.131 230.835 396.717 231.874 397.761C232.913 398.804 233.497 400.219 233.497 401.694C233.497 403.17 232.913 404.584 231.874 405.628C230.835 406.671 229.426 407.257 227.957 407.257Z" fill="#182D46"/>
<path d="M161.5 469C156.581 469.005 151.725 467.898 147.291 465.76C142.856 463.622 138.959 460.509 135.887 456.651C132.815 452.793 130.648 448.29 129.546 443.476C128.444 438.662 128.436 433.661 129.523 428.844C129.702 428.029 130.062 427.266 130.576 426.611C131.091 425.957 131.747 425.428 132.495 425.065C133.25 424.697 134.078 424.506 134.917 424.506C135.756 424.506 136.585 424.697 137.34 425.065C144.911 428.671 153.185 430.542 161.565 430.542C169.944 430.542 178.219 428.671 185.79 425.065C186.54 424.709 187.361 424.527 188.191 424.533C189.021 424.539 189.839 424.732 190.585 425.098C191.331 425.463 191.985 425.993 192.5 426.647C193.014 427.301 193.376 428.063 193.558 428.876C194.645 433.695 194.636 438.697 193.534 443.513C192.431 448.328 190.263 452.832 187.189 456.69C184.115 460.548 180.215 463.661 175.779 465.798C171.343 467.934 166.485 469.04 161.565 469.032L161.5 469ZM139.875 438.072C140.385 443.477 142.884 448.496 146.883 452.149C150.882 455.803 156.094 457.827 161.5 457.827C166.906 457.827 172.118 455.803 176.117 452.149C180.116 448.496 182.615 443.477 183.125 438.072C169.095 442.811 153.905 442.811 139.875 438.072Z" fill="#182D46"/>
<path d="M161.5 441.624C143.474 441.602 126.193 434.402 113.446 421.601C100.7 408.801 93.5299 391.447 93.5085 373.345V338.492C93.5085 337.019 94.09 335.607 95.1253 334.564C96.1607 333.521 97.5655 332.933 99.0318 332.929H223.968C225.437 332.929 226.846 333.515 227.885 334.558C228.924 335.601 229.508 337.016 229.508 338.492V373.345C229.486 391.45 222.314 408.807 209.564 421.607C196.814 434.408 179.529 441.606 161.5 441.624ZM104.571 344.006V373.296C104.571 388.458 110.569 403 121.245 413.721C131.922 424.442 146.402 430.465 161.5 430.465C176.598 430.465 191.079 424.442 201.755 413.721C212.431 403 218.429 388.458 218.429 373.296V344.006H104.571Z" fill="#182D46"/>
<path d="M223.968 344.006H99.0318C97.5655 344.001 96.1607 343.414 95.1253 342.371C94.09 341.328 93.5085 339.915 93.5085 338.443V304.774C92.1035 303.152 86.128 300.525 81.283 298.384C67.7654 292.351 47.368 283.252 30.3459 263.028C10.2069 239.074 0 205.145 0 162.183C0 119.169 17.0151 77.9174 47.3022 47.5022C77.5894 17.0871 118.668 0 161.5 0C204.332 0 245.411 17.0871 275.698 47.5022C305.985 77.9174 323 119.169 323 162.183C323 205.242 313.972 237.225 295.4 259.93C279.653 279.133 260.435 287.404 246.32 293.405C235.887 297.865 229.475 300.768 229.508 304.385V338.443C229.508 339.918 228.924 341.333 227.885 342.376C226.846 343.42 225.437 344.006 223.968 344.006ZM104.571 332.88H218.445V304.433C218.445 293.259 229.314 288.588 242.008 283.171C269.867 271.283 311.953 253.346 311.953 162.183C311.543 122.389 295.513 84.365 267.347 56.3711C239.181 28.3773 201.153 12.6748 161.524 12.6748C121.896 12.6748 83.8679 28.3773 55.7015 56.3711C27.5352 84.365 11.5056 122.389 11.095 162.183C11.095 254.935 59.6904 276.586 85.7888 288.215C96.8192 293.08 104.814 296.681 104.587 304.531L104.571 332.88Z" fill="#182D46"/>
<path d="M189.779 344.006C189.349 344.005 188.922 343.956 188.503 343.86C187.074 343.517 185.839 342.62 185.067 341.365C184.295 340.109 184.05 338.598 184.385 337.162C200.922 266.564 209.982 228.807 219.285 209.037C224.259 198.479 229.588 192.349 236.581 189.154C243.041 186.202 250.002 186.056 259.837 186.802C261.293 186.926 262.641 187.622 263.588 188.74C264.534 189.857 265.003 191.304 264.893 192.767C264.782 194.229 264.1 195.589 262.996 196.55C261.892 197.51 260.455 197.994 258.998 197.895C243.106 196.679 236.872 197.701 229.298 213.789C220.48 232.505 211.533 269.84 195.173 339.676C194.895 340.904 194.21 342.001 193.23 342.788C192.25 343.575 191.033 344.004 189.779 344.006Z" fill="#403434"/>
<path d="M130.282 339.465C128.918 339.464 127.603 338.957 126.589 338.041C125.575 337.124 124.935 335.864 124.791 334.502C124.791 334.161 121.093 300.135 113.583 264.05C100.663 202.112 87.3554 185.472 80.5724 181.061C79.3984 180.195 78.0345 179.626 76.5955 179.4C75.1566 179.174 73.6846 179.299 72.3036 179.763C70.9308 180.147 69.4636 179.985 68.2069 179.31C66.9501 178.636 66.0006 177.501 65.5556 176.141C65.1106 174.782 65.2044 173.303 65.8175 172.011C66.4306 170.719 67.5157 169.714 68.8475 169.205C71.8003 168.215 74.9418 167.926 78.0246 168.362C81.1074 168.798 84.0473 169.947 86.6125 171.719C95.0912 177.233 102.649 189.056 109.691 207.87C115.949 225.472 120.889 243.519 124.468 261.86C132.091 298.465 135.773 332.977 135.773 333.318C135.927 334.785 135.494 336.253 134.571 337.399C133.647 338.546 132.308 339.277 130.847 339.432C130.66 339.457 130.471 339.468 130.282 339.465Z" fill="#403434"/>
<path d="M129.038 103.1C128.909 103.375 128.909 103.505 128.764 103.635V103.781C128.784 104.015 128.739 104.251 128.635 104.462C128.71 105.034 128.566 105.614 128.231 106.084C127.869 106.516 127.402 106.846 126.874 107.041H126.196C126.067 107.041 125.938 107.041 125.938 107.17C125.938 107.3 125.792 107.17 125.663 107.3C125.554 107.399 125.426 107.474 125.288 107.521C125.149 107.569 125.002 107.587 124.856 107.576H124.775C124.499 107.595 124.223 107.551 123.967 107.446H123.434C122.679 107.615 121.951 107.888 121.27 108.257C121.014 108.5 120.786 108.772 120.592 109.068C120.348 109.453 120.022 109.779 119.639 110.025C119.492 110.196 119.31 110.334 119.106 110.43H118.977C118.832 110.56 118.702 110.706 118.702 110.836L118.299 111.241C118.106 111.463 117.877 111.65 117.62 111.793L117.217 112.198V112.328C117.071 112.458 117.071 112.733 116.942 112.879C116.813 113.025 116.538 113.139 116.409 113.285L116.264 113.414C116.135 113.544 116.135 113.82 115.989 113.95C115.788 114.057 115.607 114.2 115.456 114.371L115.327 114.501C115.327 114.631 115.182 114.777 115.182 114.906C115.182 115.036 115.053 115.458 114.907 115.588C114.815 115.795 114.677 115.978 114.503 116.123C114.506 116.141 114.504 116.16 114.499 116.177C114.493 116.195 114.484 116.211 114.472 116.225C114.46 116.239 114.445 116.25 114.428 116.258C114.411 116.265 114.393 116.269 114.374 116.269V117.08C114.374 117.485 114.245 117.761 114.245 118.037C114.114 118.24 114.021 118.465 113.97 118.702C113.841 118.702 113.841 118.848 113.841 118.848C113.724 119.101 113.674 119.38 113.696 119.658C113.696 119.788 113.567 119.934 113.567 120.064V120.34C113.445 120.924 113.353 121.514 113.292 122.107C113.163 122.237 113.163 122.513 113.018 122.643V123.729C112.916 124.015 112.78 124.287 112.614 124.54C112.485 124.686 112.485 124.686 112.485 124.816C112.37 125.172 112.278 125.535 112.21 125.902C112.231 126.312 112.188 126.723 112.081 127.119C111.933 127.269 111.837 127.462 111.806 127.67C111.789 127.67 111.773 127.674 111.757 127.68C111.741 127.687 111.727 127.696 111.715 127.708C111.703 127.72 111.694 127.735 111.687 127.75C111.681 127.766 111.677 127.783 111.677 127.8V127.93C111.677 128.076 111.806 128.205 111.677 128.481C111.699 128.672 111.647 128.863 111.532 129.016C111.522 129.121 111.476 129.218 111.403 129.292V130.249C111.273 130.379 111.273 130.654 111.128 130.784C111.055 130.858 111.009 130.956 110.999 131.06V132.422C110.853 132.957 110.724 133.509 110.595 134.044C110.435 134.431 110.342 134.842 110.321 135.26V135.536C110.325 135.728 110.281 135.918 110.191 136.088C110.191 136.347 110.046 136.493 109.917 136.752C109.84 136.827 109.79 136.923 109.772 137.028V137.158C109.772 137.304 109.917 137.58 109.917 137.709C109.771 138.245 109.642 138.666 109.513 139.072C109.384 139.477 109.368 139.607 109.239 139.883V140.564C109.258 140.84 109.213 141.118 109.109 141.375C109.109 141.504 108.964 141.65 108.964 141.78V142.737C108.959 142.982 108.867 143.218 108.706 143.402C108.692 143.509 108.641 143.607 108.56 143.678C108.505 143.902 108.462 144.13 108.431 144.359C108.431 144.635 108.286 144.894 108.286 145.17C107.99 146.146 107.769 147.144 107.624 148.154C107.478 148.835 107.204 149.516 107.074 150.197C107.074 150.327 106.945 150.603 106.945 150.733L106.8 150.879V151.56C106.612 153.055 106.204 154.515 105.589 155.89C105.538 156.585 105.403 157.272 105.185 157.934C105.16 158.222 105.066 158.5 104.91 158.744C104.881 158.974 104.838 159.201 104.781 159.426V160.366C104.636 160.642 104.507 160.918 104.377 161.193C104.232 161.193 104.232 161.323 104.232 161.453C104.117 161.758 104.073 162.085 104.103 162.41C103.997 162.717 103.953 163.042 103.974 163.367C103.874 163.761 103.686 164.127 103.425 164.437C103.425 164.583 103.295 164.713 103.15 164.989C103.005 165.264 103.021 165.524 103.021 165.799C103.021 166.075 102.892 166.481 102.892 166.756C102.892 167.032 102.617 167.567 102.488 167.973C102.245 168.348 102.06 168.758 101.939 169.189C101.939 169.465 101.81 169.74 101.81 170.016C101.709 170.475 101.574 170.925 101.406 171.362C101.406 171.638 101.26 171.768 101.131 172.043C100.989 172.197 100.894 172.389 100.857 172.595V172.854C100.876 173.047 100.83 173.241 100.727 173.406C100.613 173.728 100.478 174.042 100.324 174.346C100.324 174.492 100.178 174.622 100.049 174.768V175.709C99.8987 176.176 99.7152 176.631 99.5 177.071C99.3047 177.374 99.1268 177.688 98.9672 178.012V178.839C98.838 179.098 98.6925 179.244 98.6925 179.504C98.6925 179.763 98.5634 179.78 98.4342 179.926V180.331C98.2888 180.59 98.2888 180.996 98.0143 181.272C97.7397 181.547 97.7559 181.823 97.6105 182.083C97.4652 182.342 97.2067 182.91 97.0775 183.315C96.9483 183.721 96.9322 183.85 96.803 184.126C96.7158 184.861 96.4373 185.561 95.9955 186.153C95.8794 186.912 95.5488 187.621 95.0427 188.197C94.9135 188.602 94.639 188.878 94.5098 189.284C94.453 189.508 94.4098 189.735 94.3805 189.965C94.3518 190.293 94.2585 190.613 94.106 190.905C93.9562 191.272 93.7241 191.6 93.4277 191.862C93.2016 192.1 93.0161 192.374 92.8786 192.673C92.8052 192.747 92.7595 192.845 92.7494 192.949C92.7559 193.136 92.7113 193.321 92.6202 193.484C92.5828 193.69 92.4875 193.882 92.3456 194.035C92.2164 194.165 92.2164 194.311 92.0711 194.311V194.571C91.9419 194.846 91.9419 194.976 91.8127 195.252C91.6612 195.503 91.4765 195.732 91.2636 195.933L90.8598 196.42C90.6935 196.626 90.5575 196.855 90.4561 197.101C90.2155 197.644 89.8942 198.147 89.5032 198.593C89.3923 199.345 89.0671 200.049 88.5666 200.62C88.4212 200.62 88.4211 200.766 88.2919 200.766C88.1627 200.766 88.292 201.042 88.1628 201.042C88.0336 201.042 88.0174 201.301 88.0174 201.447C87.7429 201.707 87.6137 201.982 87.3391 202.128C87.2114 202.22 87.1079 202.342 87.0375 202.484C86.9672 202.625 86.9321 202.781 86.9354 202.939V203.069L86.8062 203.215C86.5667 203.471 86.2953 203.694 85.9987 203.88H85.8534C85.7242 204.026 85.5949 204.156 85.5949 204.285C85.4567 204.545 85.2704 204.777 85.0459 204.967C84.9167 205.113 84.6421 205.242 84.5129 205.372C84.5129 205.411 84.4976 205.448 84.4703 205.475C84.4431 205.503 84.4061 205.518 84.3675 205.518C84.2383 205.648 84.2384 205.648 84.2384 205.794C84.2384 205.94 84.093 206.199 83.9638 206.329C83.8346 206.459 83.5601 206.734 83.4309 206.734C83.3017 206.734 83.1563 206.864 83.1563 207.01C83.1563 207.156 83.0271 207.14 82.8817 207.286C82.7364 207.432 82.7525 207.691 82.478 207.951C82.2034 208.21 81.945 208.372 81.6705 208.502C81.3272 208.63 81.0057 208.811 80.7176 209.037C80.7177 209.108 80.691 209.176 80.643 209.227C80.5949 209.278 80.5292 209.309 80.4592 209.313L80.0393 209.719C79.8713 209.926 79.6376 210.069 79.3772 210.124C79.3066 210.205 79.2088 210.257 79.1026 210.27C78.9572 210.4 78.6989 210.529 78.5535 210.675C78.2674 211.066 77.8977 211.388 77.4715 211.616C77.2131 211.616 77.0677 211.616 76.9385 211.762H76.664C76.3559 211.873 76.0789 212.056 75.8565 212.297C75.582 212.443 75.4527 212.573 75.3235 212.573C74.6728 212.948 73.9921 213.268 73.2886 213.53H72.4811C72.3358 213.53 72.2066 213.66 71.9321 213.789C71.6575 213.919 71.5283 214.065 71.2537 214.195C70.5916 214.341 70.0425 214.341 69.3642 214.47C68.9135 214.449 68.4621 214.493 68.0237 214.6H67.7492C67.62 214.746 67.4746 214.746 67.2 214.746H66.2634C65.9889 214.746 65.8596 214.6 65.7143 214.6H65.585C65.3211 214.674 65.0507 214.723 64.7775 214.746H63.1625C62.7052 214.717 62.2541 214.624 61.8222 214.47C61.4794 214.318 61.1136 214.225 60.74 214.195H59.7872C59.5418 214.095 59.3131 213.959 59.109 213.789C59.0393 213.719 58.9485 213.673 58.8505 213.66H58.5598C58.4872 213.668 58.4137 213.661 58.3441 213.638C58.2745 213.616 58.2104 213.579 58.1561 213.53C58.0524 213.527 57.9507 213.5 57.8585 213.453C57.7663 213.405 57.6858 213.337 57.6231 213.254H57.4778C57.4278 213.198 57.3647 213.155 57.2943 213.13C57.2238 213.105 57.1481 213.097 57.0741 213.108C56.7563 213.13 56.4373 213.086 56.1373 212.978C55.7336 212.703 55.3137 212.297 54.9099 212.022L54.7807 211.892C54.7807 211.762 54.6515 211.762 54.5062 211.616L53.6987 210.805C53.5695 210.675 53.5695 210.529 53.4241 210.4V210.124C53.2949 209.994 53.0204 209.994 52.8912 209.865C52.762 209.735 52.4875 209.719 52.3421 209.589C52.1968 209.459 52.3421 209.443 52.2129 209.443C51.86 209.168 51.5401 208.852 51.26 208.502C51.1308 208.226 51.1308 207.951 51.0016 207.691C50.8724 207.432 51.0016 207.286 50.8563 207.14L50.7271 207.01C50.5979 206.734 50.3233 206.605 50.178 206.329C50.0326 206.053 50.0488 205.923 50.0488 205.794C50.0488 205.664 50.0488 205.518 49.9196 205.518C49.7904 205.518 49.7742 205.242 49.645 205.113C49.4064 204.888 49.2214 204.613 49.1039 204.307C48.9865 204.001 48.9396 203.672 48.9667 203.345C48.8375 203.069 48.8376 202.793 48.6922 202.534C48.5469 202.274 48.6922 202.388 48.563 202.388C48.4338 202.128 48.1592 201.982 48.03 201.447V200.49C48.03 200.215 48.1592 199.955 48.03 199.679C48.0527 199.443 48.002 199.205 47.8847 198.998C47.8847 198.593 47.7555 198.041 47.7555 197.506C47.7435 197.182 47.7872 196.858 47.8847 196.549V195.203C47.8196 194.844 47.8196 194.476 47.8847 194.117C47.9611 193.859 48.0998 193.625 48.2885 193.435C48.3066 193.33 48.3574 193.234 48.4338 193.16C48.539 192.903 48.5833 192.625 48.563 192.349C48.5362 192.056 48.5698 191.761 48.6615 191.482C48.7531 191.203 48.9011 190.946 49.096 190.727V190.581C49.0741 190.303 49.1241 190.023 49.2413 189.77C49.2413 189.494 49.5158 189.235 49.645 189.089C49.645 189.054 49.6586 189.021 49.6829 188.997C49.7071 188.973 49.74 188.959 49.7742 188.959C49.8361 188.735 49.8847 188.508 49.9196 188.278C50.0333 187.801 50.2126 187.343 50.4525 186.916C50.6013 186.705 50.7875 186.524 51.0016 186.38V186.234C50.9928 186.006 51.037 185.778 51.1309 185.57C51.3121 185.26 51.541 184.98 51.8091 184.742L52.2129 184.337C52.2429 184.089 52.3376 183.854 52.4874 183.656C52.6166 183.526 52.7458 183.25 52.8912 183.121L53.2949 182.715C53.2949 182.681 53.3085 182.648 53.3328 182.623C53.357 182.599 53.3899 182.585 53.4241 182.585C53.5695 182.439 53.5695 182.31 53.6987 182.034C53.7305 181.831 53.8267 181.643 53.9732 181.499C54.4509 180.69 55.0952 179.994 55.8628 179.455C56.2551 179.126 56.6172 178.763 56.9448 178.369C57.074 178.239 57.074 178.093 57.2194 178.093C57.4778 177.833 57.6231 177.558 58.0269 177.152C58.1703 177.005 58.3573 176.908 58.5598 176.877L58.7052 176.747C58.8344 176.747 58.8344 176.601 58.8344 176.471C59.0028 176.315 59.1399 176.128 59.2381 175.92C59.3673 175.79 59.6419 175.66 59.7872 175.514C59.8615 175.519 59.9357 175.505 60.0033 175.474C60.0709 175.443 60.1298 175.395 60.1748 175.336C60.3202 175.206 60.4494 175.06 60.4494 174.93C60.4494 174.801 60.7239 174.525 60.8531 174.379C60.9823 174.233 61.2569 174.119 61.4022 173.973H61.5315C61.5822 173.92 61.6202 173.856 61.6426 173.786C61.6649 173.715 61.6711 173.641 61.6606 173.568C61.806 173.438 61.9352 173.163 62.2097 173.033C62.2895 172.932 62.3939 172.854 62.5128 172.805C62.6316 172.757 62.7609 172.74 62.888 172.757L63.0172 172.627C63.1464 172.481 63.2918 172.352 63.421 172.222C63.5502 172.092 63.8247 172.076 63.97 172.076H64.0993C64.2285 171.946 64.3738 171.67 64.6322 171.541C64.7747 171.283 64.9604 171.053 65.1813 170.86C65.3288 170.689 65.5104 170.55 65.7143 170.454C65.8596 170.308 65.9888 170.178 66.1342 170.178C66.2795 170.178 66.2634 170.049 66.2634 169.903C66.5975 169.636 66.9604 169.407 67.3454 169.222H68.1529C68.2821 169.092 68.4275 169.092 68.5567 168.962C68.6859 168.832 69.1058 168.816 69.3642 168.816C70.3529 168.953 71.2621 169.435 71.9321 170.178C72.0783 170.348 72.2132 170.526 72.3358 170.714V170.86L72.6104 171.135C72.9126 171.257 73.1873 171.439 73.4179 171.67C73.6538 172.05 73.8384 172.459 73.9669 172.887L74.3706 173.714C74.4728 173.987 74.6596 174.22 74.9036 174.379C75.4974 175.101 75.7923 176.024 75.7273 176.958C75.5819 178.19 74.4999 178.871 73.6924 179.407C73.4885 179.503 73.3069 179.641 73.1594 179.812C72.9166 180.04 72.6384 180.226 72.3358 180.363C71.9867 180.603 71.6254 180.825 71.2537 181.028C71.2537 181.174 71.1246 181.304 71.1246 181.45L70.5916 181.985C70.4384 182.128 70.2479 182.223 70.0425 182.261C69.9702 182.337 69.8724 182.383 69.7679 182.391C69.6387 182.666 69.3642 182.796 69.235 183.072L68.0237 184.288C67.7492 184.434 67.62 184.564 67.3454 184.694C67.0709 184.823 66.9416 184.969 66.7963 185.115C66.6509 185.261 66.6672 185.245 66.6672 185.375C66.6672 185.505 66.3926 185.78 66.2634 185.926C66.1109 186.067 65.9193 186.157 65.7143 186.186L65.585 186.332C65.2889 186.588 65.0567 186.91 64.9068 187.272C64.5263 187.909 64.0208 188.461 63.421 188.894C63.2918 188.894 63.1465 189.17 63.1465 189.3C62.9859 189.51 62.8504 189.739 62.7427 189.981L62.2097 190.516C62.1382 190.52 62.0706 190.55 62.0199 190.601C61.9692 190.652 61.9391 190.72 61.9352 190.792C61.6103 191.354 61.3398 191.946 61.1277 192.56C60.9031 193.425 60.5374 194.247 60.0456 194.992C59.9162 196.032 59.9162 197.083 60.0456 198.122C60.0393 198.356 60.0834 198.589 60.1748 198.804V199.485C60.457 200.149 60.8752 200.746 61.4022 201.236C61.5314 201.382 61.5314 201.512 61.6606 201.512C61.7898 201.512 61.806 201.642 61.806 201.788C62.0383 202.056 62.3108 202.285 62.6135 202.469H62.7427C62.8881 202.469 63.0173 202.323 63.1465 202.323C63.2203 202.4 63.3164 202.451 63.421 202.469C63.6706 202.472 63.9111 202.564 64.0993 202.728C64.4003 202.871 64.722 202.964 65.0522 203.004C65.1814 203.004 65.1813 203.004 65.3105 202.874C65.7143 202.874 66.2633 202.728 66.7963 202.728C67.6387 202.49 68.4968 202.311 69.3642 202.193C69.5095 202.063 69.768 201.918 69.9133 201.788L70.7208 201.382L71.5283 200.977C72.3048 200.774 72.9783 200.289 73.4179 199.615V199.485L73.6924 199.339C74.9846 198.553 76.0877 197.489 76.9224 196.225C77.3316 195.649 77.7852 195.107 78.279 194.603C78.2681 194.307 78.3537 194.015 78.5227 193.772C78.6917 193.529 78.935 193.348 79.2156 193.257L79.4903 192.981C79.6474 192.723 79.7824 192.452 79.894 192.17C79.9186 191.877 80.0127 191.593 80.1685 191.343C80.2707 191.142 80.4074 190.961 80.5723 190.808L80.7015 190.678C80.6904 190.604 80.6978 190.528 80.7232 190.457C80.7486 190.386 80.791 190.323 80.8468 190.273C80.8254 189.99 80.8916 189.707 81.0361 189.463C81.1806 189.22 81.3965 189.026 81.6543 188.91C81.7964 188.502 82.0282 188.13 82.3326 187.824C82.4618 187.548 82.591 187.418 82.591 187.272C82.6682 187.206 82.7196 187.114 82.7363 187.013C82.7259 186.94 82.7321 186.866 82.7545 186.795C82.7769 186.725 82.8148 186.661 82.8656 186.608C82.9689 186.326 83.162 186.086 83.4147 185.926C83.4147 185.78 83.5438 185.651 83.5438 185.521C83.5438 185.391 83.6731 185.245 83.6731 185.115C83.6731 184.986 83.8184 184.564 83.9476 184.288C84.0768 184.013 84.0769 184.029 84.2222 183.883C84.2368 183.78 84.2818 183.684 84.3513 183.607V183.202C84.4967 182.942 84.4968 182.666 84.626 182.391C84.7288 182.15 84.9195 181.959 85.1588 181.856C85.1588 181.817 85.1742 181.78 85.2014 181.752C85.2287 181.725 85.2657 181.71 85.3042 181.71V180.899C85.4874 180.273 85.7594 179.678 86.1117 179.131C86.3974 178.89 86.5914 178.558 86.6609 178.19V178.044C86.6609 177.915 86.5155 177.639 86.6609 177.379C86.8062 177.12 86.9193 176.828 87.0646 176.552C87.21 176.276 87.323 176.293 87.323 176.147L87.1938 175.871L87.323 175.612C87.4683 175.336 87.5975 175.206 87.7267 175.206V175.06C87.7794 174.67 87.9233 174.297 88.1466 173.973C88.2758 173.844 88.2758 173.714 88.405 173.568V173.163C88.4399 172.933 88.4885 172.705 88.5504 172.481C88.6463 172.277 88.7839 172.094 88.9541 171.946C88.9541 171.8 88.9542 171.8 89.0834 171.8V171.541C89.0187 171.439 88.9842 171.321 88.9842 171.2C88.9842 171.079 89.0187 170.961 89.0834 170.86C89.1869 170.462 89.3741 170.092 89.6324 169.773C89.8908 169.222 90.0362 168.962 89.8909 168.557L89.7616 168.281V168.135C89.86 167.782 90.043 167.459 90.2946 167.194C90.4452 167.047 90.5419 166.852 90.5691 166.643H90.4399C90.4399 166.383 90.2946 166.237 90.2946 165.978C90.4397 165.462 90.6232 164.958 90.8437 164.47C90.9458 164.269 91.0825 164.087 91.2474 163.934C91.2817 163.934 91.3146 163.921 91.3388 163.896C91.363 163.872 91.3766 163.839 91.3766 163.805V163.659C91.495 163.452 91.5458 163.214 91.5219 162.977C91.5219 162.848 91.6512 162.718 91.6512 162.442C91.6512 162.167 91.7965 162.167 91.9257 162.037V161.226C92.0549 160.95 92.055 160.82 92.2003 160.674V160.399C92.2003 160.139 92.055 159.993 92.2003 159.734C92.1853 159.436 92.277 159.143 92.4587 158.907C92.5394 158.843 92.5918 158.75 92.6041 158.647V158.371C92.5977 158.138 92.6417 157.905 92.7332 157.69C92.7332 157.415 93.0078 157.285 93.0078 157.009C93.0421 157.009 93.075 156.995 93.0992 156.971C93.1234 156.947 93.1369 156.914 93.1369 156.879V156.75C93.1272 156.673 93.1353 156.595 93.1605 156.522C93.1857 156.449 93.2274 156.382 93.2823 156.328C93.2875 156.083 93.379 155.847 93.5407 155.663V155.387C93.4752 155.165 93.4752 154.928 93.5407 154.706C93.5561 154.27 93.6963 153.848 93.9444 153.49C94.1443 153.201 94.2868 152.876 94.3644 152.533V152.127C94.292 151.956 94.2546 151.771 94.2546 151.584C94.2546 151.397 94.292 151.213 94.3644 151.041C94.4936 150.506 94.7681 150.36 94.8973 150.084C95.0265 149.808 95.1719 149.954 95.1719 149.678C95.1803 149.604 95.1715 149.529 95.1463 149.459C95.1211 149.388 95.0802 149.325 95.0266 149.273V148.462C95.0808 148.115 95.2195 147.786 95.4303 147.505C95.4568 147.363 95.5058 147.226 95.5756 147.1V146.84C95.4451 146.639 95.3934 146.396 95.4303 146.159C95.498 145.706 95.6878 145.279 95.9794 144.927C96.2539 144.797 96.3831 144.391 96.5123 144.262V143.305C96.5223 143.053 96.6193 142.812 96.7869 142.624V142.348C96.6804 142.092 96.6362 141.814 96.6577 141.537C96.6687 141.382 96.7099 141.23 96.7792 141.091C96.8484 140.952 96.9444 140.828 97.0615 140.726C97.2099 140.479 97.3035 140.202 97.336 139.915V139.234C97.3256 139.108 97.3434 138.982 97.3881 138.864C97.4329 138.746 97.5033 138.64 97.5944 138.553V138.423C97.5318 138.295 97.4883 138.158 97.4652 138.018C97.4652 137.742 97.5944 137.612 97.5944 137.466C97.6126 137.468 97.6312 137.467 97.6488 137.461C97.6664 137.456 97.6826 137.447 97.6964 137.434C97.7101 137.422 97.7211 137.407 97.7286 137.39C97.7361 137.373 97.7399 137.355 97.7398 137.336V137.19C97.7398 136.931 97.5944 136.785 97.7398 136.655C97.746 136.499 97.7852 136.346 97.8548 136.206C97.9244 136.066 98.0228 135.943 98.1435 135.844C98.2727 135.569 98.4181 135.439 98.2727 135.033V134.79C98.1675 134.534 98.1232 134.256 98.1435 133.979C98.2536 133.67 98.4365 133.392 98.6765 133.168C98.715 133.168 98.7519 133.153 98.7792 133.126C98.8064 133.098 98.8218 133.061 98.8218 133.022V132.763C98.8329 132.688 98.8255 132.612 98.8001 132.542C98.7747 132.471 98.7322 132.408 98.6765 132.357V132.082C98.7879 131.8 98.923 131.529 99.0802 131.271C99.2256 131.125 99.3548 130.995 99.3548 130.865V130.59C99.2996 130.365 99.2565 130.138 99.2255 129.908C99.3446 129.695 99.4317 129.466 99.484 129.227C99.6293 129.097 99.6293 129.097 99.6293 128.952V128.822C99.6293 128.546 99.6293 128.416 99.7585 128.287C99.7657 128.034 99.8631 127.792 100.033 127.605C100.031 127.587 100.032 127.568 100.038 127.551C100.043 127.533 100.052 127.517 100.065 127.503C100.077 127.489 100.092 127.478 100.109 127.471C100.126 127.463 100.144 127.459 100.162 127.459C100.106 127.235 100.062 127.008 100.033 126.778C100.033 126.649 99.9038 126.373 99.9038 126.243L99.484 126.649C99.0565 127.131 98.5549 127.542 97.9981 127.865C97.7397 127.865 97.5944 128.011 97.4652 128.011H97.1906C97.0614 128.011 96.9161 128.287 96.6577 128.416C96.3993 128.546 96.2539 128.822 95.9794 128.822C95.7652 128.914 95.5339 128.958 95.3011 128.952H95.1719L94.7681 129.357C94.4936 129.503 94.3643 129.779 93.9444 129.908C93.6893 130.015 93.4125 130.06 93.1369 130.038C92.8624 130.184 92.7332 130.184 92.4587 130.314C92.1841 130.444 92.2003 130.444 92.0549 130.59C91.7978 130.851 91.4736 131.036 91.1182 131.125C90.9595 131.24 90.7639 131.292 90.5691 131.271H90.4399C89.8908 131.4 89.3579 131.676 88.8249 131.806C87.9985 132.163 87.1382 132.435 86.2571 132.617C86.1279 132.763 85.8533 132.763 85.7241 132.893C85.5949 133.022 85.0458 133.022 84.7713 133.022H84.093C83.7702 133.073 83.4552 133.166 83.1563 133.298C82.6834 133.486 82.1789 133.579 81.6705 133.574H81.396C81.3233 133.583 81.2495 133.576 81.1797 133.554C81.1099 133.531 81.046 133.494 80.9922 133.444H80.4592C80.3139 133.574 80.0393 133.574 79.9101 133.703H79.5548C79.2964 133.703 79.0219 133.574 78.7473 133.574C78.4872 133.486 78.2143 133.442 77.9398 133.444H76.4541C76.0871 133.476 75.7174 133.427 75.3719 133.298C75.0974 133.298 74.9682 133.022 74.8229 132.893C74.6775 132.763 74.6937 132.893 74.6937 132.763H73.8862C73.2079 132.487 72.1258 132.082 71.5929 131.806C71.3183 131.53 71.0438 131.4 70.9146 131.271C70.7854 131.141 70.6401 130.995 70.5109 130.995C70.3817 130.995 70.3655 130.865 70.2363 130.719C70.0809 130.712 69.9289 130.672 69.7898 130.602C69.6507 130.533 69.5277 130.434 69.4288 130.314C69.2823 130.17 69.186 129.982 69.1542 129.779L69.025 129.633C68.8662 129.467 68.6806 129.33 68.476 129.227C68.1864 129.074 67.9498 128.837 67.7976 128.546C67.717 128.482 67.6519 128.401 67.6071 128.308C67.5624 128.216 67.5392 128.114 67.5392 128.011L67.3938 127.865C67.2646 127.605 67.1193 127.459 66.9901 127.2C66.6177 126.697 66.3035 126.153 66.0535 125.578V123.956C65.9771 123.882 65.9262 123.786 65.9081 123.681C65.8262 123.617 65.7592 123.536 65.7118 123.443C65.6644 123.351 65.6377 123.249 65.6335 123.145V122.189C65.6335 122.059 65.5043 121.783 65.5043 121.637C65.3994 121.432 65.3546 121.202 65.3751 120.972C65.3546 120.69 65.3988 120.407 65.5043 120.145C65.5043 120.015 65.5043 119.886 65.6335 119.886C65.7627 119.886 65.5043 119.61 65.5043 119.334C65.4389 119.024 65.4389 118.704 65.5043 118.393C65.5586 118.046 65.6973 117.717 65.9081 117.437C65.9263 117.439 65.9449 117.437 65.9625 117.432C65.9801 117.426 65.9963 117.417 66.0101 117.405C66.0238 117.393 66.0348 117.377 66.0423 117.361C66.0498 117.344 66.0536 117.325 66.0535 117.307C65.9842 116.753 66.0738 116.19 66.3118 115.685C66.4572 115.555 66.4571 115.28 66.5863 115.15V114.193C66.7826 113.49 67.0533 112.81 67.3938 112.166C67.5392 112.02 67.6684 111.76 67.7976 111.614C67.8691 111.61 67.9368 111.58 67.9874 111.529C68.0381 111.478 68.0683 111.41 68.0722 111.338C68.0722 111.209 68.2013 110.933 68.2013 110.803C68.2013 110.674 68.4759 110.398 68.6051 110.268C68.6436 110.268 68.6806 110.253 68.7079 110.225C68.7352 110.198 68.7505 110.161 68.7505 110.122C68.8028 109.881 68.8956 109.651 69.025 109.441C69.1161 108.962 69.297 108.506 69.558 108.095C69.6872 107.949 69.6872 107.819 69.8325 107.689C69.9235 107.29 70.106 106.918 70.3655 106.603C70.5518 106.296 70.7801 106.018 71.0438 105.776C71.173 105.646 71.4475 105.516 71.5929 105.24C71.7221 105.24 71.7221 105.111 71.8513 104.965C72.0441 104.623 72.317 104.334 72.6462 104.122C72.9755 103.91 73.3512 103.782 73.7409 103.748C74.116 103.769 74.4835 103.862 74.8229 104.024L75.6466 104.429C75.6504 104.497 75.6789 104.561 75.7265 104.609C75.7742 104.657 75.8376 104.685 75.9049 104.689C76.0503 104.835 76.1795 104.835 76.3087 104.965C76.5497 105.073 76.7773 105.209 76.9869 105.37C77.1323 105.516 77.2615 105.776 77.3907 105.922V106.051C77.536 106.051 77.5361 106.181 77.6653 106.181C77.7394 106.17 77.815 106.177 77.8855 106.203C77.956 106.228 78.0191 106.271 78.0691 106.327L78.8766 107.138C79.1689 107.49 79.5395 107.768 79.9586 107.949H80.2331L80.3785 108.225C80.7027 108.669 80.9284 109.178 81.0406 109.717C81.186 109.717 81.186 109.846 81.186 109.992C81.4144 110.5 81.5035 111.06 81.4444 111.614C81.3343 111.998 81.1016 112.334 80.7823 112.571L80.5077 112.847C80.2332 113.106 80.2332 113.512 80.104 113.787C79.9748 114.063 79.8294 114.339 79.7002 114.598C79.571 114.858 79.4257 115.004 79.2965 115.15C79.1673 115.296 78.8765 115.555 78.7473 115.685V115.961C78.6181 116.09 78.6182 116.366 78.4728 116.642C78.3275 116.918 78.2144 117.583 77.9398 118.264C77.9297 118.368 77.884 118.465 77.8106 118.539C77.5401 119.187 77.3975 119.881 77.3907 120.583C77.3907 120.988 77.9398 121.799 78.3436 121.799H78.6181C78.8703 121.682 79.1484 121.631 79.4256 121.653H79.7002C79.9287 121.69 80.1551 121.739 80.3785 121.799H80.6369C80.7822 121.799 81.0407 121.653 81.186 121.653C81.5898 121.524 81.8643 121.248 82.268 121.248H83.35C83.7017 121.148 84.0669 121.104 84.4322 121.118C84.5614 120.988 84.6906 120.988 84.8359 120.842C85.0325 120.629 85.2614 120.449 85.5142 120.307C85.8593 120.162 86.2239 120.069 86.5962 120.031C86.8546 119.902 87.1292 119.902 87.2584 119.756C87.8073 119.599 88.3147 119.322 88.7442 118.945C89.1265 118.672 89.5383 118.444 89.9716 118.264C90.2177 118.117 90.4938 118.028 90.7791 118.004C90.9866 117.872 91.2164 117.778 91.4574 117.728C91.4574 117.583 91.5865 117.583 91.7319 117.453C91.8794 117.282 92.061 117.144 92.2649 117.047L93.2178 116.642H93.4761L93.6215 116.496C93.7507 116.366 93.7507 116.09 94.0253 115.961C94.4668 115.564 94.9683 115.241 95.511 115.004C95.7856 114.874 96.1894 114.744 96.4478 114.598C97.0426 114.212 97.549 113.704 97.9335 113.106L98.2081 112.701H98.6118C98.7572 112.701 98.8864 112.701 99.161 112.425C99.4355 112.149 99.4193 112.02 99.6938 111.89C99.9684 111.76 99.9684 111.76 100.098 111.614C100.354 111.537 100.587 111.398 100.776 111.209C101.051 110.933 101.454 110.674 101.729 110.398C102.005 110.124 102.32 109.894 102.665 109.717C102.679 109.61 102.73 109.512 102.811 109.441L103.069 109.181C103.215 108.906 103.489 108.906 103.618 108.76L103.748 108.63C103.828 108.559 103.88 108.461 103.893 108.354C104.057 108.122 104.235 107.9 104.426 107.689C104.662 107.46 104.935 107.274 105.233 107.138C105.379 107.138 105.508 107.008 105.637 107.008C106.125 106.591 106.579 106.136 106.994 105.646C107.123 105.646 107.123 105.516 107.268 105.37C107.414 105.224 107.543 104.965 107.801 104.689C108.06 104.413 108.205 104.559 108.35 104.429C108.496 104.3 108.479 104.429 108.625 104.284C108.625 104.249 108.638 104.216 108.663 104.192C108.687 104.167 108.72 104.154 108.754 104.154C108.773 104.036 108.819 103.925 108.889 103.829C108.959 103.733 109.052 103.655 109.158 103.602C109.287 103.343 109.432 103.197 109.562 103.197C109.634 103.121 109.732 103.075 109.836 103.067C109.836 102.937 109.836 102.937 109.965 102.791C110.095 102.645 110.111 102.532 110.24 102.256C110.369 101.981 110.644 101.981 110.918 101.851C111.193 101.721 111.451 101.445 111.451 101.17L111.596 100.764L111.855 100.732C111.923 100.652 112.007 100.588 112.102 100.543C112.196 100.498 112.299 100.474 112.404 100.472C113.031 99.7749 113.761 99.1786 114.568 98.7044C115.025 98.4597 115.435 98.1357 115.779 97.7476C115.908 97.7476 115.908 97.6178 116.054 97.4881C116.324 97.1103 116.701 96.8222 117.136 96.6609H117.394C117.669 96.6609 117.943 96.6609 118.073 96.8069H118.315C118.467 96.634 118.654 96.4958 118.864 96.4014C119.206 96.2814 119.568 96.2317 119.93 96.2555C120.094 96.1535 120.287 96.1079 120.479 96.1257C120.553 96.052 120.65 96.0062 120.754 95.996C120.935 95.8186 121.178 95.7196 121.432 95.7203C121.482 95.6643 121.545 95.6216 121.615 95.5962C121.686 95.5707 121.761 95.5632 121.836 95.5743C122.094 95.5743 122.368 95.7203 122.643 95.7203H124.129C124.18 95.6654 124.243 95.6235 124.313 95.5981C124.383 95.5727 124.459 95.5646 124.533 95.5743C124.746 95.4793 124.978 95.4349 125.211 95.4446C125.8 95.3933 126.392 95.4911 126.934 95.7291C127.476 95.9671 127.949 96.3376 128.312 96.8069C128.811 97.7636 128.954 98.8677 128.715 99.9208V101.689C128.715 101.818 128.861 101.964 128.861 102.094C128.861 102.224 129.038 102.694 129.038 103.1Z" fill="#403434"/>
<path d="M138.777 126.032C138.777 125.627 138.502 125.351 138.502 125.092C138.502 124.41 138.632 123.729 138.632 123.048C138.632 122.772 138.502 122.367 138.502 122.107C138.502 121.556 138.777 121.151 138.632 120.745C138.632 120.064 138.502 119.529 138.502 118.977C138.502 118.702 138.632 118.572 138.632 118.166C138.906 116.269 138.502 114.225 138.632 112.328C138.777 112.052 138.906 111.647 139.035 111.371C139.165 111.095 138.906 110.965 138.906 110.706C138.906 110.446 139.035 110.155 139.035 109.879C139.035 109.603 138.906 109.344 138.906 109.068C138.812 107.483 138.855 105.893 139.035 104.316C139.181 103.463 139.181 102.591 139.035 101.737C138.971 101.199 138.971 100.654 139.035 100.115C139.035 99.564 139.31 99.1586 139.31 98.6233C139.31 98.0881 139.181 97.9421 139.31 97.6664C139.439 97.3907 139.455 96.9853 139.455 96.5798C139.455 96.1744 139.31 95.4932 139.31 94.8282C139.31 94.1633 139.455 93.8714 139.455 93.3362V91.7143C139.714 89.1356 140.796 88.049 143.767 88.4707C144.591 88.4707 145.657 88.7464 146.739 88.7464C147.013 88.7464 147.288 88.6167 147.563 88.6167C147.837 88.6167 148.095 88.7464 148.37 88.7464C149.343 88.7386 150.308 88.9204 151.212 89.2816C151.471 89.4276 151.471 89.833 151.745 90.2385C151.856 90.5479 152.038 90.826 152.278 91.0494C152.698 91.8603 152.424 92.5415 152.424 93.6281C152.489 94.2589 152.489 94.8948 152.424 95.5257C152.424 96.3528 152.02 97.0177 152.02 97.5691C152.02 97.8448 152.149 98.1043 152.149 98.38C152.149 99.1909 152.02 100.002 152.02 100.683C152.02 101.364 152.149 101.364 152.149 101.77C151.979 102.575 151.887 103.395 151.875 104.219C151.875 104.494 152.02 104.754 152.02 105.03C152.02 105.305 151.616 105.711 151.616 105.986C151.616 106.262 152.02 106.668 152.02 107.073C152.02 107.203 151.745 107.479 151.745 107.884C151.616 108.825 151.875 110.187 151.745 111.274V114.663C151.745 114.939 151.616 115.215 151.616 115.49C151.616 115.766 151.745 116.026 151.745 116.431C151.745 116.836 151.616 117.112 151.616 117.388C151.616 117.664 151.745 117.923 151.745 118.199C151.745 118.734 151.616 119.139 151.616 119.561C151.681 120.056 151.681 120.558 151.616 121.053C151.796 123.308 151.84 125.572 151.745 127.832C151.745 128.514 151.616 129.049 151.616 129.876C151.616 130.703 151.875 131.368 151.875 132.179C151.875 132.99 151.342 133.12 151.616 134.076C151.616 134.887 151.745 135.698 151.745 136.525C151.745 137.612 151.875 138.423 151.875 139.364C151.875 139.915 151.745 140.596 151.745 141.131C151.745 141.667 151.875 141.813 151.875 142.088C151.875 142.364 151.616 142.623 151.616 142.899C151.616 143.175 151.875 143.305 151.875 143.58C151.875 143.856 151.745 144.116 151.745 144.391C151.745 144.667 151.875 144.927 151.875 145.202V146.013C151.875 146.694 152.149 147.246 152.149 147.781C152.034 148.684 151.99 149.595 152.02 150.506C152.165 150.8 152.253 151.119 152.278 151.446C152.424 152.349 152.424 153.269 152.278 154.171C152.278 154.43 152.149 154.836 152.149 155.241C152.149 155.647 152.698 156.198 152.698 156.863C152.72 157.141 152.67 157.421 152.553 157.674C152.553 158.355 152.827 159.036 152.827 159.847C152.796 160.077 152.753 160.304 152.698 160.528C152.85 160.903 153.028 161.266 153.231 161.615V163.383C153.231 163.642 153.102 163.918 153.102 164.194C153.102 164.47 153.506 164.875 153.506 165.28C153.506 165.686 153.36 165.816 153.36 166.091C153.337 166.55 153.386 167.01 153.506 167.454C153.506 167.713 153.78 167.989 153.909 168.394C153.844 168.89 153.844 169.391 153.909 169.886C153.909 170.292 154.184 170.568 154.184 170.843C154.184 171.119 154.039 171.524 154.184 171.784C154.329 172.043 154.442 172.335 154.588 172.741C154.717 173.422 154.442 174.363 154.588 175.044C154.717 175.449 155.121 175.725 155.121 176.001C155.331 176.571 155.331 177.198 155.121 177.768C155.401 178.093 155.63 178.46 155.799 178.855C155.907 179.345 155.95 179.846 155.928 180.347C156.074 181.434 156.752 182.245 156.881 183.056C156.881 183.331 156.752 183.591 156.881 183.867C157.01 184.142 157.414 184.418 157.559 184.677C157.705 184.937 157.689 185.505 157.963 185.764C158.238 186.024 158.496 186.316 158.641 186.591C158.916 187.126 159.174 187.808 159.449 188.343C159.578 188.619 159.853 188.748 159.982 189.024C160.152 189.642 160.245 190.28 160.256 190.921C160.256 191.197 160.531 191.603 160.531 191.878C160.531 192.154 159.982 192.414 159.724 192.689C159.609 193.045 159.517 193.408 159.449 193.776C159.053 194.201 158.691 194.656 158.367 195.138C157.97 195.773 157.65 196.454 157.414 197.166C157.254 197.329 157.118 197.515 157.01 197.717C157.017 197.951 156.973 198.183 156.881 198.398C156.881 198.658 156.477 198.658 156.203 198.933C155.928 199.209 155.928 199.614 155.67 199.744C155.135 200.089 154.536 200.321 153.909 200.425C153.535 200.222 153.173 199.995 152.827 199.744C152.441 199.623 152.076 199.442 151.745 199.209C151.471 198.933 151.471 198.528 151.342 198.398C151.212 198.268 150.793 198.122 150.534 197.847C150.276 197.571 150.13 197.311 149.856 196.906C149.581 196.501 149.178 196.484 149.048 196.225C148.919 195.965 148.774 195.398 148.645 195.138C148.253 194.665 147.796 194.25 147.288 193.906C146.335 194.052 146.077 194.992 145.253 195.398C145.011 195.556 144.733 195.651 144.446 195.673C144.171 195.819 144.042 196.079 143.767 196.079C143.493 196.079 143.089 196.225 142.96 196.484C142.831 196.744 142.556 197.036 142.282 197.166C142.029 197.283 141.751 197.333 141.474 197.311C141.07 197.441 140.667 197.717 140.263 197.847H139.455C139.181 197.976 139.035 198.252 138.777 198.398C138.496 198.378 138.214 198.422 137.953 198.528C137.824 198.528 137.695 198.658 137.42 198.804C136.748 198.912 136.066 198.955 135.385 198.933C134.488 198.998 133.586 198.998 132.688 198.933C131.752 198.804 130.524 198.933 129.846 198.804C129.588 198.804 129.442 198.528 129.184 198.398C128.102 197.976 127.149 197.717 126.196 197.311C125.663 197.166 125.259 196.63 124.71 196.355C124.293 196.037 123.844 195.766 123.37 195.544C122.966 195.268 122.692 194.733 122.288 194.457C121.982 194.326 121.703 194.139 121.464 193.906C120.982 193.442 120.534 192.943 120.124 192.414C119.978 192.284 119.978 191.878 119.72 191.749C119.462 191.619 119.171 191.197 119.042 190.921C118.479 190.057 117.983 189.152 117.556 188.213C117.399 187.926 117.164 187.689 116.878 187.532C116.898 187.255 116.854 186.978 116.748 186.721L116.07 186.04C115.925 185.505 115.795 184.823 115.666 184.272C115.341 183.759 115.065 183.216 114.843 182.65C114.863 182.283 114.82 181.915 114.713 181.564C114.584 181.012 114.18 180.607 114.035 180.072C113.777 179.115 113.906 178.028 113.631 176.941C113.476 176.458 113.384 175.956 113.357 175.449C113.033 174.205 112.811 172.935 112.695 171.654C112.695 171.249 112.824 170.843 112.695 170.568C112.665 170.15 112.573 169.74 112.42 169.351C112.275 167.859 112.275 166.221 112.275 164.875C112.383 164.243 112.431 163.602 112.42 162.961C112.42 162.702 112.016 162.296 112.016 162.021C112.016 161.745 112.275 161.339 112.275 161.064C112.21 160.482 112.21 159.894 112.275 159.312C112.456 157.958 112.504 156.589 112.42 155.225C112.42 154.82 112.146 154.56 112.275 154.155C112.404 153.749 112.695 153.474 112.695 153.068C112.695 152.663 112.549 151.981 112.549 151.446C112.549 150.506 113.098 149.678 113.098 148.868C113.098 148.592 112.953 148.332 112.953 148.057C112.953 147.246 113.357 146.694 113.357 145.883C113.502 145.608 113.228 145.202 113.357 144.797C113.486 144.391 113.777 144.262 113.777 143.986C113.842 143.67 113.842 143.345 113.777 143.029C113.777 142.623 114.035 142.348 114.181 141.942C114.326 141.537 114.181 141.002 114.31 140.596C114.439 140.191 114.713 139.915 114.713 139.639C114.988 139.104 114.988 138.553 115.263 138.017C115.371 137.513 115.506 137.015 115.666 136.525C115.853 136.14 116.081 135.776 116.345 135.439C116.603 135.033 116.603 134.482 116.878 134.076C117.08 133.7 117.307 133.337 117.556 132.99C117.83 132.455 118.234 131.903 118.493 131.368C118.958 130.716 119.5 130.122 120.108 129.6C120.701 129.058 121.333 128.56 121.997 128.108L122.53 127.557C122.675 127.427 123.079 127.427 123.354 127.297C123.689 127.032 124.052 126.804 124.436 126.616C124.78 126.485 125.151 126.435 125.518 126.47C126.455 126.211 127.262 125.529 127.94 125.383C129.022 125.254 129.701 125.805 130.508 125.935C130.783 125.935 131.316 125.805 131.59 125.805C132.398 126.211 133.205 126.47 134.029 126.876C134.407 127.081 134.816 127.223 135.24 127.297C135.515 127.427 135.789 127.297 136.048 127.297C136.306 127.297 136.597 127.832 136.871 127.962C137.263 128.394 137.785 128.685 138.357 128.789C138.615 128.514 138.486 128.108 138.486 127.703C138.648 127.159 138.746 126.599 138.777 126.032ZM127.553 141.504V142.315C127.423 142.867 127.02 143.143 126.874 143.678V144.359C126.745 144.894 126.616 145.575 126.471 146.127C126.341 146.402 126.067 146.662 126.067 146.938C126.067 147.213 126.341 147.748 126.196 148.3C126.051 148.851 125.938 148.981 125.792 149.387C125.728 150.196 125.728 151.01 125.792 151.819C125.598 152.343 125.463 152.887 125.389 153.441C125.389 153.701 125.534 153.976 125.534 154.252C125.534 154.933 125.114 155.874 125.114 156.701C125.259 158.552 125.259 160.412 125.114 162.264C125.114 163.075 125.389 163.886 125.389 164.421C125.389 164.697 125.114 165.102 125.114 165.378C125.114 165.653 125.389 165.929 125.534 166.189C125.679 166.448 125.259 166.74 125.259 167.016C125.259 167.291 125.534 167.681 125.534 168.086V168.913C125.563 169.199 125.651 169.475 125.792 169.724C125.728 170.263 125.728 170.807 125.792 171.346C125.792 171.622 125.938 171.752 125.938 172.027V172.838C125.938 173.114 126.196 173.244 126.196 173.519C126.315 173.823 126.365 174.15 126.341 174.476C126.471 175.011 126.471 175.563 126.616 176.244C126.745 176.503 126.874 176.909 127.02 177.185C127.211 178.345 127.525 179.481 127.956 180.574C128.102 181.126 128.764 181.401 128.909 181.937C129.038 182.212 128.909 182.488 129.039 182.748C129.168 183.007 129.846 183.429 129.846 183.834C130.928 184.11 131.203 185.326 132.155 185.602C132.285 185.732 132.559 185.602 132.818 185.602C133.076 185.602 133.367 186.007 133.641 186.007H134.852C135.127 185.878 135.385 185.602 135.66 185.472C135.935 185.342 136.209 185.472 136.338 185.326C137.017 185.196 137.42 184.645 137.953 184.645C138.632 183.704 139.988 183.299 140.667 182.212C140.941 181.807 140.941 181.126 141.199 180.72C141.458 180.315 142.023 180.315 142.152 179.909C142.263 179.142 142.307 178.366 142.282 177.59C142.152 176.649 141.474 175.693 141.474 174.882C141.345 174.476 141.603 173.925 141.603 173.519C141.442 172.512 141.221 171.516 140.941 170.535C140.972 170.306 141.015 170.079 141.07 169.854C141.07 169.594 140.796 169.319 140.796 169.173V168.362C140.65 166.859 140.424 165.364 140.117 163.886C140.117 163.61 140.263 163.35 140.263 163.075C140.128 162.471 139.944 161.88 139.714 161.307C139.851 160.274 139.851 159.226 139.714 158.193C139.532 157.483 139.445 156.753 139.455 156.02C139.455 155.614 139.584 155.339 139.584 154.933C139.584 154.528 139.181 154.252 139.181 153.976C139.181 153.701 139.455 153.295 139.455 152.89C139.455 152.484 139.31 152.484 139.31 152.208C139.325 151.708 139.282 151.207 139.181 150.716C139.02 150.285 138.927 149.831 138.906 149.37C138.906 148.965 139.181 148.543 139.035 148.138C138.905 147.564 138.681 147.016 138.373 146.516C137.824 145.835 137.695 144.894 136.613 144.748C136.356 144.484 136.168 144.161 136.064 143.807C135.256 143.532 135.127 142.575 134.32 142.299C134.045 140.953 132.285 140.402 131.203 139.72C130.799 139.591 130.395 139.055 129.991 139.055C129.184 138.91 128.764 139.591 128.231 139.72C128.102 140.418 127.682 140.823 127.553 141.504Z" fill="#403434"/>
<path d="M162.55 169.189C162.695 168.654 162.291 167.973 162.421 167.437C162.55 166.902 162.695 166.756 162.695 166.481C162.695 166.205 162.55 165.945 162.55 165.67C162.614 164.789 162.798 163.921 163.099 163.091C163.296 162.318 163.442 161.532 163.535 160.739C163.535 160.464 163.406 160.188 163.406 159.912C163.406 159.636 163.939 159.101 164.068 158.696C164.197 158.29 163.939 158.161 164.068 157.885C164.197 157.609 164.342 157.204 164.488 156.668C164.467 156.344 164.511 156.019 164.617 155.712C164.746 155.306 165.021 154.901 165.15 154.495C165.279 154.09 165.15 153.814 165.295 153.263C165.425 153.003 165.699 152.857 165.699 152.582V151.917C165.828 151.641 166.232 151.365 166.377 151.089C166.526 150.561 166.613 150.016 166.636 149.468C166.823 148.816 167.148 148.213 167.589 147.7C167.863 146.889 167.992 145.932 168.267 145.121C169.074 144.845 169.204 144.034 169.624 143.224C170.043 142.413 170.286 142.267 170.286 141.602C170.651 140.983 171.061 140.392 171.513 139.834C171.642 139.558 171.642 139.282 171.771 139.023C171.901 138.764 172.321 138.618 172.45 138.472C172.813 137.852 173.223 137.261 173.677 136.704C174.081 136.169 174.614 135.893 175.018 135.358C175.163 135.082 175.163 134.806 175.292 134.531C175.819 134.008 176.41 133.555 177.052 133.184C177.456 132.633 177.585 131.952 177.989 131.563C178.532 131.173 179.124 130.857 179.749 130.622C180.153 130.346 180.428 129.811 180.832 129.535C181.112 129.432 181.35 129.238 181.51 128.984L182.915 128.303C183.339 128.058 183.743 127.781 184.126 127.476C184.284 127.372 184.472 127.327 184.659 127.346C184.934 127.216 185.208 126.794 185.483 126.794C186.007 126.606 186.548 126.47 187.098 126.389C187.502 126.259 187.776 125.724 188.309 125.578C188.842 125.432 189.536 125.984 190.069 125.448C191.555 125.854 193.041 125.043 194.527 125.448C194.801 125.448 195.076 125.724 195.205 125.724C195.886 125.74 196.568 125.691 197.24 125.578C197.573 125.657 197.89 125.795 198.177 125.984C198.451 125.984 198.855 125.984 198.984 126.13C199.404 126.259 199.662 126.665 200.066 126.94C200.372 127.047 200.696 127.091 201.019 127.07C201.658 127.4 202.251 127.814 202.779 128.303C203.054 128.432 203.312 128.838 203.587 129.114C203.861 129.389 204.394 129.519 204.54 129.795C204.685 130.071 204.798 130.46 204.944 130.735C205.202 131.287 205.622 131.546 205.88 132.228C206.139 132.909 206.284 133.46 206.429 134.125C206.536 134.527 206.58 134.943 206.559 135.358C206.806 136.144 206.851 136.982 206.688 137.79C206.647 138.12 206.56 138.442 206.429 138.747V139.834C206.104 140.441 205.834 141.076 205.622 141.731C205.476 142.137 205.622 142.542 205.476 142.818C205.347 143.499 204.798 143.905 204.54 144.586C204.281 145.267 204.394 145.527 204.265 145.932C204.136 146.337 203.716 146.354 203.587 146.613C203.43 146.872 203.295 147.143 203.183 147.424C203.133 147.692 202.99 147.933 202.779 148.105V148.932C202.634 149.192 202.101 149.338 201.827 149.743C201.673 150.117 201.495 150.48 201.294 150.83C201.148 151.089 200.89 151.235 200.615 151.511C200.341 151.787 200.486 152.046 200.341 152.322C199.957 153.035 199.454 153.677 198.855 154.22C198.746 154.789 198.464 155.31 198.047 155.712C197.773 155.987 197.369 155.987 197.24 156.393C197.095 156.523 197.095 156.798 196.965 157.074C196.432 157.739 195.48 158.566 194.931 159.377C194.672 159.653 194.672 159.912 194.398 160.188C194.123 160.464 193.59 160.593 193.316 161.145C192.923 161.637 192.602 162.184 192.363 162.767C191.959 163.448 191.83 163.577 191.151 163.723C190.618 164.129 190.473 164.664 190.069 165.07C189.391 165.897 188.454 166.156 188.051 167.243C187.589 167.487 187.174 167.811 186.823 168.2C186.694 168.329 186.565 168.735 186.419 168.881L185.612 169.692C185.326 169.961 185.006 170.19 184.659 170.373C184.558 170.651 184.371 170.89 184.126 171.054C183.577 171.589 182.915 171.865 182.511 172.546C182.237 172.676 182.237 172.952 182.091 173.211C181.429 173.892 180.202 173.892 179.943 174.979C179.232 175.43 178.552 175.928 177.908 176.471C177.634 176.617 177.505 177.022 177.23 177.022C176.956 177.022 176.697 177.152 176.552 177.298C175.341 177.963 175.615 179.325 175.874 180.818C176.036 181.232 176.219 181.638 176.423 182.034C176.778 182.655 177.183 183.246 177.634 183.802C177.783 184.017 177.969 184.203 178.183 184.353C178.43 184.651 178.656 184.965 178.861 185.294C179.421 185.684 180.072 185.918 180.751 185.975C181.009 186.105 181.429 185.975 181.688 185.975C181.94 186.124 182.22 186.218 182.511 186.251C182.963 186.274 183.415 186.224 183.852 186.105C184.126 185.975 184.255 185.699 184.53 185.569C184.804 185.44 184.805 185.44 185.079 185.294C185.354 185.148 185.887 184.483 186.29 184.207C186.42 184.077 186.823 183.948 186.969 183.802C187.453 183.294 187.901 182.752 188.309 182.18C188.454 181.774 188.729 181.774 188.987 181.499C189.091 181.217 189.284 180.978 189.536 180.818C189.666 180.542 189.94 180.412 190.069 180.282C190.199 180.153 190.069 179.731 190.215 179.601C190.36 179.471 190.748 179.196 191.022 178.92C191.297 178.644 191.151 178.515 191.297 178.369C191.442 178.223 191.701 178.109 191.83 177.963C192.067 177.587 192.247 177.177 192.363 176.747C192.623 176.407 192.85 176.043 193.041 175.66C193.186 175.384 193.445 175.255 193.59 174.979C193.735 174.703 193.719 174.573 193.849 174.444C194.123 174.038 194.527 173.763 194.672 173.487C194.818 173.211 194.801 172.952 194.931 172.806C195.076 172.4 195.48 172.27 195.609 171.995C195.738 171.719 195.754 171.314 195.883 171.054C196.013 170.503 196.562 170.227 196.965 169.692C197.057 169.477 197.101 169.244 197.095 169.011C197.24 168.735 197.644 168.475 197.773 168.2C198.057 167.551 198.375 166.917 198.726 166.302C199.454 165.868 200.319 165.723 201.148 165.897C201.423 166.026 201.552 166.432 201.827 166.708C203.095 167.65 204.453 168.465 205.88 169.14C206.636 169.575 207.322 170.122 207.915 170.762C208.997 170.762 209.126 172.384 208.852 173.471C208.852 173.746 208.593 174.022 208.448 174.282C208.47 174.475 208.424 174.67 208.319 174.833C207.935 175.865 207.39 176.828 206.704 177.687C206.575 178.498 205.896 179.034 205.493 179.715C205.512 179.908 205.466 180.102 205.363 180.266C205.172 180.564 204.944 180.837 204.685 181.077C204.556 181.207 204.556 181.612 204.411 181.758C204.265 181.904 204.007 182.164 203.732 182.439C203.766 182.669 203.72 182.904 203.603 183.104C203.474 183.38 203.199 183.51 203.07 183.656C202.941 183.802 202.796 184.337 202.65 184.596L201.988 185.278C201.843 185.553 201.714 185.829 201.568 186.088C201.423 186.348 201.035 186.51 200.906 186.77C200.502 187.175 200.228 187.856 199.824 188.262C199.42 188.667 199.146 189.494 198.742 189.754C198.338 190.013 197.934 190.175 197.66 190.581C197.385 190.986 197.385 191.246 197.256 191.522L196.449 191.927C195.9 192.478 195.625 193.419 195.092 193.695C194.817 193.825 194.414 193.825 194.139 193.971C193.461 194.246 193.203 195.187 192.524 195.738C192.379 195.868 192.12 195.868 191.846 195.998C191.571 196.128 191.571 196.403 191.442 196.403H190.764C190.086 196.549 189.682 197.36 189.004 197.636C188.6 197.766 188.067 197.636 187.663 197.766C187.259 197.895 186.839 198.317 186.436 198.447C186.032 198.577 185.757 198.447 185.354 198.577C184.95 198.706 184.546 198.852 184.142 198.852H183.189C182.931 198.852 182.527 199.128 182.253 199.128C181.978 199.128 181.574 198.852 181.3 198.852C181.025 198.852 180.622 198.982 180.363 198.982C180.105 198.982 179.959 198.723 179.685 198.723C178.732 198.447 177.392 198.447 176.568 198.171C176.239 198.025 175.925 197.845 175.631 197.636C175.228 197.49 174.824 197.49 174.549 197.36C174.275 197.23 174.146 197.084 173.871 196.955C173.596 196.825 173.322 196.679 173.193 196.549C173.063 196.419 172.789 196.144 172.514 195.998C172.24 195.852 171.836 195.868 171.707 195.738C170.754 195.317 170.221 194.246 169.268 193.565C168.792 193.187 168.344 192.775 167.928 192.333C167.535 191.84 167.215 191.294 166.975 190.711L166.167 189.494C165.977 189.023 165.75 188.568 165.489 188.132C165.36 188.002 165.36 187.726 165.214 187.597C165.069 187.467 164.811 187.045 164.682 186.77V185.829C164.552 185.424 164.278 185.278 164.132 184.872C163.987 184.467 164.003 183.785 163.874 183.25C163.692 182.902 163.464 182.58 163.196 182.293C163.217 181.884 163.173 181.473 163.067 181.077C162.89 180.547 162.75 180.005 162.647 179.455C162.792 179.05 163.067 178.92 163.067 178.644C163.067 178.369 162.388 177.963 162.388 177.704C162.388 177.444 162.517 177.022 162.517 176.747C162.539 176.111 162.495 175.476 162.388 174.849C162.187 174.328 162.051 173.783 161.984 173.227C162.037 172.447 162.172 171.675 162.388 170.924C161.742 170.276 162.421 169.74 162.55 169.189ZM188.503 147.067C188.777 146.662 188.777 146.127 189.052 145.575C189.31 145.316 189.585 145.17 189.859 144.894C190.249 144.555 190.568 144.142 190.796 143.678C191.111 142.931 191.473 142.206 191.878 141.504C192.024 141.099 192.427 140.969 192.556 140.564C192.662 140.191 192.797 139.828 192.96 139.477C192.96 139.331 193.509 138.926 193.509 138.666C193.509 138.115 192.153 138.245 191.62 138.245C190.677 138.503 189.767 138.867 188.907 139.331C188.777 139.477 188.503 139.477 188.228 139.607C187.702 140.118 187.206 140.66 186.742 141.229C186.269 141.502 185.82 141.817 185.402 142.169C185.257 142.299 185.402 142.575 185.257 142.721C184.853 143.386 184.045 143.532 183.771 144.067C183.608 144.276 183.472 144.505 183.367 144.748C183.238 145.024 182.834 145.3 182.834 145.559C182.834 145.819 182.689 145.964 182.56 146.24C182.285 146.792 181.607 147.197 181.348 147.862C181.37 148.053 181.318 148.244 181.203 148.397C181.074 148.673 180.799 148.803 180.799 149.078C180.799 149.354 180.799 149.484 180.67 149.614C180.541 149.743 180.266 150.019 180.121 150.295C179.976 150.57 179.992 150.7 179.863 150.976C179.733 151.252 179.443 151.381 179.314 151.657C179.039 152.338 179.184 153.149 178.91 153.83C178.781 154.106 178.506 154.236 178.361 154.511C178.01 154.989 177.783 155.546 177.699 156.133C177.553 156.409 177.698 156.814 177.553 157.09C177.424 157.755 176.875 158.177 176.746 158.842C176.66 159.072 176.64 159.322 176.689 159.562C176.737 159.803 176.852 160.026 177.02 160.204C177.424 160.204 177.698 159.523 177.957 159.263C178.215 159.004 178.361 159.117 178.635 158.988C178.784 158.773 178.97 158.586 179.184 158.436C179.465 158.007 179.778 157.6 180.121 157.22C180.712 156.567 181.212 155.835 181.607 155.047C181.77 154.944 181.964 154.898 182.156 154.917C182.56 154.106 183.496 153.684 183.916 153.019C184.097 152.676 184.233 152.311 184.32 151.933C184.724 151.657 184.998 151.381 185.402 151.106C185.531 150.846 185.402 150.57 185.531 150.441C185.713 150.263 185.956 150.164 186.209 150.165C186.736 149.62 187.148 148.975 187.421 148.267C187.746 147.836 188.108 147.435 188.503 147.067Z" fill="#403434"/>
<path d="M256.882 160.366C256.882 160.512 256.753 160.788 256.753 161.047V162.361C256.753 163.577 256.349 164.81 256.349 166.026C256.349 166.708 256.478 167.389 256.478 168.054C256.478 168.329 256.22 168.605 256.22 168.881C256.238 170.191 256.19 171.501 256.074 172.806C256.05 173.099 255.956 173.383 255.8 173.633C255.8 173.892 255.945 174.298 255.945 174.719C255.903 175.535 255.811 176.348 255.671 177.152C255.735 177.783 255.735 178.419 255.671 179.05C255.671 179.601 255.396 180.136 255.396 180.818V181.628C255.396 182.034 255.267 182.456 255.267 182.715C255.267 182.975 255.396 183.396 255.396 183.672C255.396 183.948 255.138 184.353 255.138 184.613C255.138 184.872 255.267 185.294 255.267 185.699C255.267 186.105 255.138 186.526 255.138 186.786C254.992 187.337 255.267 187.872 255.267 188.408C255.267 188.667 254.992 188.943 254.992 189.348C254.863 190.03 254.992 190.84 254.863 191.668C254.863 192.203 254.718 192.884 254.718 193.419C254.459 195.187 253.91 195.738 252.021 195.868C251.436 195.933 250.845 195.933 250.26 195.868C250.002 195.868 249.857 195.592 249.582 195.592C249.167 195.622 248.758 195.715 248.371 195.868C247.908 195.773 247.454 195.637 247.014 195.463C246.756 195.463 246.481 195.592 246.078 195.592C245.498 195.48 244.907 195.436 244.317 195.463C243.639 195.463 242.961 195.187 242.557 195.187C241.879 195.187 241.475 195.592 240.813 195.868C240.446 195.933 240.084 196.025 239.731 196.144C239.181 196.274 238.649 196.955 237.97 197.23C237.567 197.36 237.017 197.49 236.484 197.636C236.015 197.827 235.562 198.055 235.128 198.317C234.581 198.34 234.039 198.427 233.513 198.577C233.237 198.795 232.908 198.934 232.56 198.982C232.027 199.128 231.478 198.852 230.945 198.852C230.225 198.918 229.501 198.918 228.781 198.852C228.474 198.694 228.155 198.558 227.828 198.447C227.699 198.317 227.424 198.447 227.295 198.317C227.05 198.21 226.821 198.068 226.617 197.895C226.341 197.917 226.064 197.872 225.809 197.766C225.406 197.636 225.131 197.23 224.856 197.084C224.582 196.938 224.049 196.955 223.774 196.825C223.5 196.695 223.371 195.998 222.967 195.592C222.838 195.463 222.418 195.317 222.289 195.187C222.159 195.057 222.014 194.652 221.756 194.506C221.315 194.287 220.902 194.015 220.528 193.695C220.368 193.484 220.232 193.256 220.124 193.014C219.995 192.884 219.721 192.738 219.721 192.478C219.446 192.203 219.446 191.927 219.317 191.668C219.188 191.408 218.639 191.116 218.509 190.711C218.38 190.305 218.51 190.03 218.364 189.9C218.235 189.494 217.702 189.624 217.557 189.348C217.557 188.537 216.878 188.002 216.749 187.451C216.62 187.175 216.749 186.916 216.62 186.77C216.475 186.234 215.796 185.829 215.667 185.424C215.538 185.018 215.538 184.596 215.393 184.191C215.247 183.785 214.86 183.38 214.714 182.845C214.608 182.538 214.564 182.212 214.585 181.888C214.456 181.353 214.31 181.207 214.181 180.526C213.96 179.999 213.777 179.457 213.632 178.904C213.632 178.628 213.778 178.223 213.778 177.947C213.778 177.412 213.228 176.86 213.099 176.195C212.97 175.53 213.099 174.282 212.97 173.471C212.815 173.226 212.721 172.948 212.696 172.66C212.696 172.384 212.825 172.125 212.825 171.849C212.777 171.499 212.638 171.169 212.421 170.892C212.494 170.397 212.494 169.894 212.421 169.4C212.421 168.865 212.146 168.183 212.146 167.632C212.146 167.373 212.421 166.967 212.292 166.691C212.163 166.416 212.146 166.14 212.146 165.881C212.146 165.621 212.421 165.329 212.421 164.924C212.421 164.518 212.292 163.967 212.292 163.432C212.312 162.791 212.404 162.154 212.566 161.534C212.587 161.261 212.63 160.989 212.696 160.723C212.696 160.301 212.566 160.042 212.566 159.636C212.601 159.174 212.688 158.717 212.825 158.274C212.97 157.998 212.825 157.723 212.97 157.317C213.115 156.912 213.228 156.377 213.374 155.825C213.347 155.281 213.391 154.736 213.503 154.203C213.632 153.928 214.052 153.652 214.181 153.246C214.31 152.841 214.052 152.436 214.052 152.03C214.108 151.581 214.293 151.158 214.585 150.814C214.86 150.538 215.263 150.408 215.263 150.133C215.538 149.451 215.263 148.77 215.393 148.235C215.522 147.7 216.071 147.408 216.2 147.002C216.329 146.597 216.345 146.337 216.475 146.192C216.62 145.786 217.153 145.51 217.282 145.105C217.411 144.699 217.282 144.424 217.427 144.164C217.557 143.613 218.235 143.207 218.509 142.932C218.639 142.121 219.188 141.715 219.592 141.034C219.825 140.606 220.095 140.199 220.399 139.818C220.528 139.672 220.803 139.542 220.932 139.412C221.355 139.16 221.689 138.779 221.885 138.326C222.014 138.18 222.014 137.92 222.159 137.774C222.563 136.963 223.5 136.428 224.049 135.601C225.131 135.471 225.535 134.255 226.213 133.574L227.021 133.168C227.367 132.82 227.779 132.544 228.232 132.357C229.039 131.806 229.718 131.125 230.396 130.735C230.904 130.653 231.402 130.517 231.882 130.33C232.431 130.054 232.964 129.373 233.497 129.243C233.755 129.114 234.159 129.114 234.433 128.968C234.708 128.822 234.983 128.562 235.241 128.432C235.499 128.303 235.79 128.562 236.194 128.562C236.597 128.562 236.727 127.751 237.276 127.622H238.083C238.487 127.476 238.762 127.216 239.036 127.216H239.844C240.522 127.216 241.329 126.94 241.862 126.94C242.395 126.94 242.541 127.216 242.944 127.216C243.348 127.216 243.494 127.07 243.768 127.07C244.043 127.07 244.301 127.346 244.576 127.476C244.799 127.419 245.025 127.375 245.254 127.346C245.658 127.346 246.594 127.622 247.273 127.622C247.547 127.622 247.822 127.476 248.08 127.476C248.339 127.476 248.629 127.751 248.904 127.751C249.437 127.751 249.986 127.476 250.519 127.622C250.892 127.645 251.258 127.732 251.601 127.881C252.812 128.157 254.572 127.881 255.929 128.157C256.566 128.257 257.197 128.393 257.819 128.562C258.284 128.947 258.617 129.469 258.771 130.054C258.859 130.47 258.808 130.903 258.626 131.287C258.661 131.511 258.709 131.733 258.771 131.952C258.576 132.576 258.435 133.217 258.352 133.866C258.352 134.125 258.497 134.401 258.497 134.677C258.626 136.298 258.093 137.92 258.093 139.542C258.117 140.361 258.069 141.181 257.948 141.991C257.948 142.25 257.819 142.526 257.819 142.672C257.689 143.483 257.948 144.294 257.819 144.975C257.819 145.251 257.544 145.51 257.544 145.916C257.604 146.14 257.653 146.368 257.689 146.597C257.689 146.873 257.415 147.148 257.415 147.408C257.415 147.667 257.544 147.959 257.544 148.235C257.544 148.916 257.269 149.581 257.269 150.408C257.383 151.263 257.431 152.125 257.415 152.987C257.415 153.798 256.737 155.014 257.269 156.231C256.914 157.578 256.783 158.976 256.882 160.366ZM241.62 180.461C241.749 180.331 241.749 179.926 242.024 179.65C242.298 179.374 242.557 179.374 242.557 179.098C242.557 178.823 242.428 178.693 242.428 178.417C242.594 177.987 242.686 177.532 242.702 177.071V175.709C242.897 175.185 243.033 174.641 243.106 174.087C243.106 173.811 242.961 173.406 242.961 173C242.932 172.456 242.981 171.909 243.106 171.378C243.106 170.973 243.381 170.568 243.381 170.162C243.271 169.171 243.223 168.175 243.235 167.178C243.235 166.772 243.381 166.627 243.381 166.367C243.613 164.93 243.657 163.469 243.51 162.021C243.639 161.339 244.188 160.804 244.188 160.253C244.188 159.977 243.913 159.718 243.913 159.442C243.801 158.953 243.757 158.451 243.784 157.95C243.995 157.574 244.132 157.161 244.188 156.733C244.188 156.458 243.913 156.052 243.913 155.777C243.913 155.501 244.043 155.225 244.043 154.966C244.115 154.558 244.115 154.141 244.043 153.733C244.043 153.198 244.592 152.517 244.592 151.835C244.592 151.576 244.317 151.3 244.317 151.025C244.317 150.749 244.592 150.489 244.592 150.214C244.592 149.938 244.446 149.662 244.446 149.403C244.446 149.143 244.721 148.722 244.721 148.446C244.721 148.17 244.446 147.911 244.446 147.635C244.446 147.359 244.721 146.824 244.721 146.419C244.794 145.783 244.794 145.141 244.721 144.505C244.897 144.223 244.992 143.897 244.996 143.564C245.125 142.202 244.317 141.667 243.639 140.985C243.435 140.649 243.129 140.388 242.764 140.241C242.4 140.095 241.999 140.072 241.62 140.175C240.594 140.359 239.595 140.675 238.649 141.115C238.308 141.358 237.99 141.629 237.696 141.926C237.421 142.072 237.163 142.072 237.017 142.202C236.339 142.607 235.935 143.288 235.128 143.159C233.72 144.315 232.407 145.584 231.203 146.954C230.804 147.375 230.442 147.831 230.121 148.316C229.863 148.722 229.718 149.257 229.459 149.662C229.314 149.808 228.91 150.068 228.781 150.343C228.652 150.619 228.781 150.895 228.636 151.154C228.377 151.706 227.973 152.241 227.699 152.922C227.553 153.068 227.553 153.328 227.424 153.733C227.295 154.138 227.021 154.414 226.891 154.69C226.762 154.966 226.746 155.371 226.746 155.777C226.558 156.07 226.421 156.393 226.342 156.733C226.213 156.993 226.342 157.269 226.342 157.544C226.172 157.731 226.075 157.973 226.068 158.225C225.96 158.715 225.917 159.217 225.939 159.718C225.809 160.528 225.535 161.21 225.406 161.891C225.26 162.831 225.535 163.788 225.406 164.875C225.406 165.28 225.131 165.54 225.131 165.962C225.123 167.506 225.259 169.048 225.535 170.568V171.524C225.535 171.784 225.809 172.206 225.809 172.465C225.953 173.367 226.04 174.277 226.068 175.19C226.488 176.941 227.554 178.709 227.554 180.607C227.884 181.168 228.16 181.76 228.377 182.374C228.506 182.65 228.636 182.65 228.781 182.926C228.88 183.167 229.016 183.392 229.185 183.591C229.459 184.013 229.863 184.272 230.121 184.677C230.267 184.823 230.267 185.229 230.396 185.359C230.772 185.599 231.179 185.785 231.607 185.91C232.171 185.813 232.716 185.627 233.222 185.359C233.589 185.218 233.912 184.983 234.159 184.677C234.433 184.548 234.837 184.418 235.112 184.272C235.484 183.958 235.891 183.686 236.323 183.461C236.879 183.34 237.42 183.161 237.938 182.926C238.342 181.969 239.02 181.693 239.827 181.158C240.454 181.008 241.057 180.773 241.62 180.461Z" fill="#403434"/>
</g>
<defs>
<clipPath id="clip0_699_2">
<rect width="323" height="469" fill="white"/>
</clipPath>
</defs>
</svg>
